<svg width="61" height="60" viewBox="0 0 61 60" fill="none" xmlns="http://www.w3.org/2000/svg">
<rect x="0.5" width="60" height="60" rx="30" fill="white"/>
<path d="M30.5 31.3805L34.4292 35.3097C34.8104 35.6909 35.4285 35.6909 35.8097 35.3097C36.1909 34.9284 36.1909 34.3103 35.8097 33.9291L31.8805 30L35.8097 26.0708C36.1909 25.6896 36.1909 25.0715 35.8097 24.6903C35.4285 24.309 34.8104 24.309 34.4292 24.6903L30.5 28.6194L26.5707 24.6902C26.1895 24.309 25.5714 24.309 25.1902 24.6902C24.809 25.0714 24.809 25.6895 25.1902 26.0707L29.1194 30L25.1902 33.9292C24.809 34.3104 24.809 34.9285 25.1902 35.3097C25.5714 35.6909 26.1895 35.6909 26.5707 35.3097L30.5 31.3805Z" fill="#505D6D"/>
</svg>
