<svg width="61" height="60" viewBox="0 0 61 60" fill="none" xmlns="http://www.w3.org/2000/svg">
<path d="M0.5 30C0.5 13.4315 13.9315 0 30.5 0C47.0685 0 60.5 13.4315 60.5 30C60.5 46.5685 47.0685 60 30.5 60C13.9315 60 0.5 46.5685 0.5 30Z" fill="#2BA471"/>
<path d="M24.6796 21.8204L25.2929 21.2071C25.6834 20.8166 26.3166 20.8166 26.7071 21.2071L29.2929 23.7929C29.6834 24.1834 29.6834 24.8166 29.2929 25.2071L27.5005 26.9995C27.2016 27.2984 27.1275 27.755 27.3165 28.1331C28.4093 30.3186 30.1814 32.0907 32.3669 33.1835C32.745 33.3725 33.2016 33.2984 33.5005 32.9995L35.2929 31.2071C35.6834 30.8166 36.3166 30.8166 36.7071 31.2071L39.2929 33.7929C39.6834 34.1834 39.6834 34.8166 39.2929 35.2071L38.6796 35.8204C36.5683 37.9317 33.2257 38.1693 30.837 36.3777L29.6286 35.4714C27.885 34.1638 26.3362 32.615 25.0286 30.8714L24.1223 29.663C22.3307 27.2743 22.5683 23.9317 24.6796 21.8204Z" fill="white"/>
</svg>
