<svg width="61" height="60" viewBox="0 0 61 60" fill="none" xmlns="http://www.w3.org/2000/svg">
<rect x="0.5" width="60" height="60" rx="30" fill="#001A41"/>
<path fill-rule="evenodd" clip-rule="evenodd" d="M39.0433 24.7039C39.5 25.8065 39.5 27.2044 39.5 30C39.5 32.7956 39.5 34.1935 39.0433 35.2961C38.4343 36.7663 37.2663 37.9343 35.7961 38.5433C34.6935 39 33.2956 39 30.5 39H27.5C24.6716 39 23.2574 39 22.3787 38.1213C21.5 37.2426 21.5 35.8284 21.5 33V30C21.5 27.2044 21.5 25.8065 21.9567 24.7039C22.5657 23.2337 23.7337 22.0657 25.2039 21.4567C26.3065 21 27.7044 21 30.5 21C33.2956 21 34.6935 21 35.7961 21.4567C37.2663 22.0657 38.4343 23.2337 39.0433 24.7039ZM26.5 27.9996C26.5 27.4473 26.9477 26.9996 27.5 26.9996H33.5C34.0523 26.9996 34.5 27.4473 34.5 27.9996C34.5 28.5519 34.0523 28.9996 33.5 28.9996H27.5C26.9477 28.9996 26.5 28.5519 26.5 27.9996ZM26.5 31.9996C26.5 31.4473 26.9477 30.9996 27.5 30.9996H30.5C31.0523 30.9996 31.5 31.4473 31.5 31.9996C31.5 32.5519 31.0523 32.9996 30.5 32.9996H27.5C26.9477 32.9996 26.5 32.5519 26.5 31.9996Z" fill="white"/>
</svg>
